<?xml version="1.0" encoding="UTF-8"?>
<svg width="24px" height="24px" viewBox="0 0 24 24" version="1.1" xmlns="http://www.w3.org/2000/svg" xmlns:xlink="http://www.w3.org/1999/xlink">
    <title>404ED150-FA84-4B80-9DC6-E299E5DC9BD1</title>
    <g id="Component" stroke="none" stroke-width="1" fill="none" fill-rule="evenodd">
        <g id="icons" transform="translate(-367.000000, -407.000000)">
            <g id="Group-2" transform="translate(367.000000, 407.000000)">
                <rect id="Rectangle-Copy" opacity="0" x="0" y="0" width="24" height="24"></rect>
                <g id="Group" transform="translate(3.000000, 2.000000)" fill="#FFFFFF" stroke="#FFFFFF" stroke-width="2">
                    <path d="M16,1 C16.2761424,1 16.5261424,1.11192881 16.7071068,1.29289322 C16.8579105,1.44369689 16.9607727,1.64244195 16.9908712,1.86430592 L17,2 L17,18 C17,18.2761424 16.8880712,18.5261424 16.7071068,18.7071068 C16.5563031,18.8579105 16.3575581,18.9607727 16.1356941,18.9908712 L16,19 L2,19 C1.72385763,19 1.47385763,18.8880712 1.29289322,18.7071068 C1.14208955,18.5563031 1.03922726,18.3575581 1.00912882,18.1356941 L1,18 L1,2 C1,1.72385763 1.11192881,1.47385763 1.29289322,1.29289322 C1.44369689,1.14208955 1.64244195,1.03922726 1.86430592,1.00912882 L2,1 L16,1 Z M5,8 L4.81795923,8.00817335 C4.33830872,8.05145072 3.90750094,8.26407194 3.58578644,8.58578644 C3.22385763,8.94771525 3,9.44771525 3,10 C3,10.5336591 3.20595102,11.0186465 3.57168,11.3843755 C3.90042902,11.7131245 4.36778537,11.951923 4.95406842,12 L4.95406842,12 L5,12 L4.81795923,12.0081733 C4.33830872,12.0514507 3.90750094,12.2640719 3.58578644,12.5857864 C3.22385763,12.9477153 3,13.4477153 3,14 C3,14.5336591 3.20595102,15.0186465 3.57168,15.3843755 C3.90042902,15.7131245 4.36778537,15.951923 4.95406842,16 L4.95406842,16 L9,16 L9.18204077,15.9918267 C9.66169128,15.9485493 10.0924991,15.7359281 10.4142136,15.4142136 C10.7761424,15.0522847 11,14.5522847 11,14 C11,13.4477153 10.7761424,12.9477153 10.4142136,12.5857864 C10.0522847,12.2238576 9.55228475,12 9,12 L9,12 L13,12 L13.1820408,11.9918267 C13.6616913,11.9485493 14.0924991,11.7359281 14.4142136,11.4142136 C14.7761424,11.0522847 15,10.5522847 15,10 C15,9.44771525 14.7761424,8.94771525 14.4142136,8.58578644 C14.0522847,8.22385763 13.5522847,8 13,8 L13.01,8 L13.1820408,7.99182665 C13.601735,7.95395895 13.9840339,7.78643737 14.2885746,7.52962508 L14.4142136,7.41421356 C14.7761424,7.05228475 15,6.55228475 15,6 C15,5.44771525 14.7761424,4.94771525 14.4142136,4.58578644 C14.0522847,4.22385763 13.5522847,4 13,4 L13,4 L13,4 L5,4 L4.81795923,4.00817335 C4.33830872,4.05145072 3.90750094,4.26407194 3.58578644,4.58578644 C3.22385763,4.94771525 3,5.44771525 3,6 C3,6.5336591 3.20595102,7.01864649 3.57168,7.38437546 C3.90042902,7.71312448 4.36778537,7.95192302 4.95406842,8 L4.95406842,8 L5,8 Z" id="Combined-Shape"></path>
                </g>
            </g>
        </g>
    </g>
</svg>