<?xml version="1.0" encoding="UTF-8"?>
<svg width="24px" height="24px" viewBox="0 0 24 24" version="1.1" xmlns="http://www.w3.org/2000/svg" xmlns:xlink="http://www.w3.org/1999/xlink">
    <title>52DD51E5-45AA-4CA4-9012-83F39ACC9940</title>
    <g id="Component" stroke="none" stroke-width="1" fill="none" fill-rule="evenodd">
        <g id="icons" transform="translate(-255.000000, -407.000000)" fill="#FFFFFF">
            <g id="icon/property/24px/default-copy" transform="translate(255.000000, 407.000000)">
                <g id="sidebar" transform="translate(2.000000, 2.000000)">
                    <path d="M16,0 C18.209139,-4.05812251e-16 20,1.790861 20,4 L20,16 C20,18.209139 18.209139,20 16,20 L4,20 C1.790861,20 2.705415e-16,18.209139 0,16 L0,4 C-2.705415e-16,1.790861 1.790861,4.05812251e-16 4,0 L16,0 Z M6,2 L4,2 C2.8954305,2 2,2.8954305 2,4 L2,4 L2,16 C2,17.1045695 2.8954305,18 4,18 L4,18 L6,18 L6,2 Z" id="Combined-Shape"></path>
                </g>
            </g>
        </g>
    </g>
</svg>