<?xml version="1.0" encoding="UTF-8"?>
<svg width="24px" height="24px" viewBox="0 0 24 24" version="1.1" xmlns="http://www.w3.org/2000/svg" xmlns:xlink="http://www.w3.org/1999/xlink">
    <title>58FF5287-ABD5-41B9-9F97-661FFAFC2BC5</title>
    <g id="Component" stroke="none" stroke-width="1" fill="none" fill-rule="evenodd">
        <g id="icons" transform="translate(-143.000000, -343.000000)">
            <g id="wysiwyg-24px" transform="translate(143.000000, 343.000000)">
                <rect id="Rectangle" x="0" y="0" width="24" height="24"></rect>
                <path d="M19,3 L5,3 C3.89,3 3,3.9 3,5 L3,19 C3,20.1 3.89,21 5,21 L19,21 C20.1,21 21,20.1 21,19 L21,5 C21,3.9 20.11,3 19,3 Z M19,19 L5,19 L5,7 L19,7 L19,19 Z M16,12 L8,12 C7.45,12 7,11.55 7,11 L7,11 C7,10.45 7.45,10 8,10 L16,10 C16.55,10 17,10.45 17,11 L17,11 C17,11.55 16.55,12 16,12 Z M12,16 L8,16 C7.45,16 7,15.55 7,15 L7,15 C7,14.45 7.45,14 8,14 L12,14 C12.55,14 13,14.45 13,15 L13,15 C13,15.55 12.55,16 12,16 Z" id="Shape" fill="#FFFFFF" fill-rule="nonzero"></path>
            </g>
        </g>
    </g>
</svg>